<svg height="512" width="512" xmlns="http://www.w3.org/2000/svg"><path d="M476 456H36a20 20 0 01-20-20V140a20 20 0 0120-20h440c11.046 0 20 8.954 20 24v296c0 7.046-8.954 16-20 16z" fill="#787680"/><path d="M48 156h416v272H48z" fill="#fff"/><path d="M328 264v48h-48v48h-48v-48h-48v-48h48v-48h48v48z" fill="#da1e11"/><path d="M352 76v44h-24V80H184v40h-24V76a19.994 19.994 0 0120-20h152a19.994 19.994 0 0120 20z" fill="#3e3d42"/><path d="M476 112H360V76a28.031 28.031 0 00-28-28H180a28.031 28.031 0 00-28 28v36H36a28.031 28.031 0 00-28 28v296a28.031 28.031 0 0028 28h440a28.031 28.031 0 0028-28V140a28.031 28.031 0 00-28-28zM168 76a12.01 12.01 0 0112-12h152a12.01 12.01 0 0112 12v36h-8V80a8 8 0 00-8-8H184a8 8 0 00-8 8v32h-8zm152 12v24H192V88zm168 348a12.01 12.01 0 01-12 12H36a12.01 12.01 0 01-12-12V140a12.01 12.01 0 0112-12h440a12.01 12.01 0 0112 12z"/><path d="M464 144H48a8 8 0 00-8 8v272a8 8 0 008 8h416a8 8 0 008-8V152a8 8 0 00-8-8zm-8 272H56V160h400z"/><path d="M184 320h40v40a8 8 0 008 8h48a8 8 0 008-8v-40h40a8 8 0 008-8v-48a8 8 0 00-8-8h-40v-40a8 8 0 00-8-8h-48a8 8 0 00-8 8v40h-40a8 8 0 00-8 8v48a8 8 0 008 8zm8-48h40a8 8 0 008-8v-40h32v40a8 8 0 008 8h40v32h-40a8 8 0 00-8 8v40h-32v-40a8 8 0 00-8-8h-40z"/><circle cx="72" cy="176" r="8"/><circle cx="440" cy="176" r="8"/><circle cx="72" cy="400" r="8"/><circle cx="440" cy="400" r="8"/></svg>