<svg height="512" width="512" xmlns="http://www.w3.org/2000/svg"><path d="M464 168c13.28 0 24 14.32 24 32 0 15.6-8.32 28.56-19.36 31.44h-.08a17.795 17.795 0 01-4.56.56c-13.28 0-24-14.32-24-32s10.72-32 24-32z" fill="#ff7956"/><path d="M464 168c-13.28 0-24 14.32-24 32s10.72 32 24 32a59.043 59.043 0 01-24 8 57.33 57.33 0 01-19.92-1.44 114.4 114.4 0 00-41.92-71.12A176.795 176.795 0 01464 168z" fill="#ab2300"/><path d="M400 64c13.28 0 24 14.32 24 32 0 15.6-8.32 28.56-19.36 31.44h-.08a17.795 17.795 0 01-4.56.56 369.5 369.5 0 00-7.12-1.44A32.209 32.209 0 01376 96c0-17.68 10.72-32 24-32z" fill="#ff7956"/><path d="M424 280a196.726 196.726 0 01-8.24 56C390 423.68 309.2 488 256 488S122 423.68 96.24 336A196.726 196.726 0 0188 280c0-47.12 12.64-79.84 34.16-102a92.253 92.253 0 0111.76-10.56 140.185 140.185 0 0152.64-24.16c4.88-1.2 9.92-2.24 15.04-3.12 8.32-1.44 16.88-2.48 25.68-3.12a136.486 136.486 0 0121.76-34.32A130.555 130.555 0 01264 88c57.52-48 130.8-25.68 136-24-13.28 0-24 14.32-24 32a32.209 32.209 0 0016.88 30.56c-15.12-2.96-33.2-5.68-40.88 1.44a57.922 57.922 0 00-13.36 19.12 132.91 132.91 0 0139.52 20.32 114.4 114.4 0 0141.92 71.12A204.352 204.352 0 01424 280z" fill="#ff3051"/><path d="M368 64a150.805 150.805 0 00-31.12-5.84A167.318 167.318 0 01400 64c-13.28 0-24 14.32-24 32a32.209 32.209 0 0016.88 30.56 80.922 80.922 0 00-35.12-1.68A33.79 33.79 0 01344 96c0-17.68 10.72-32 24-32zm56 216a196.726 196.726 0 01-8.24 56C390 423.68 309.2 488 256 488a75.386 75.386 0 01-16-1.76c52.24-10.8 120.48-70.96 143.76-150.24a196.726 196.726 0 008.24-56 204.352 204.352 0 00-3.92-41.44c-6.56-32.4-31.52-54.72-52.08-70.56l2.64-20.88a132.91 132.91 0 0139.52 20.32 114.4 114.4 0 0141.92 71.12A204.352 204.352 0 01424 280z" fill="#cd2a00"/><path d="M360.88 126.56c-1.68-.32-3.36-.64-5.12-.96a8.476 8.476 0 012-.72 19.329 19.329 0 003.12 1.68zM228.72 39.12l20.32 63.6a136.486 136.486 0 00-21.76 34.32c-8.8.64-17.36 1.68-25.68 3.12L182.4 51.6c-2.32-8.56 6.24-18.24 19.04-21.68s25.04.72 27.28 9.2zM159.2 57.76l27.36 85.52a140.185 140.185 0 00-52.64 24.16l-21.12-97.2c-2.24-8.56 6.24-18.24 19.04-21.68s25.04.72 27.36 9.2zM89.6 76.4L122.16 178C100.64 200.16 88 232.88 88 280L43.28 88.88c-2.32-8.56 6.24-18.24 19.04-21.68s25.04.72 27.28 9.2z" fill="#ab2300"/><path d="M432 280c.013-10.706-.736-21.4-2.24-32 1.406.186 2.822.293 4.24.32a67.836 67.836 0 0032.64-8.64l2-.24a31.2 31.2 0 0019.44-13.28A45.043 45.043 0 00496 200c0-21.2-13.28-38.4-30-39.76a186.403 186.403 0 00-86.16-1.36A132.766 132.766 0 00350 142.8a46.187 46.187 0 017.44-8.96c4.88-4.56 22.56-1.68 34.4.64 2.316.364 9.601 1.209 12.8.96 8.124-.633 14.943-6.485 19.44-13.28A45.043 45.043 0 00432 96c0-21.2-13.28-38.4-30-39.76-5.92-1.84-82.8-24.64-143.12 25.6-2.24 1.84-4.32 3.76-6.32 5.68l-16.08-50.48a20.4 20.4 0 00-9.84-12.32c-17.542-8.455-38.63-2.809-49.6 13.28a20.104 20.104 0 00-2.48 15.28l17.52 80.56c-.08 0-.08.08-.16.08l-25.04-78.24c-3.52-12.96-19.84-19.52-37.12-14.88s-28.08 18.48-24.8 31.12l17.76 81.6-25.36-79.2A20.4 20.4 0 0087.52 62a36.97 36.97 0 00-27.28-2.56 36.541 36.541 0 00-22.32 15.84 20.4 20.4 0 00-2.48 15.36h.08L80 281.04A202.419 202.419 0 0085.84 328H16v16h74.24C118.48 432 199.52 496 256 496s137.52-64 165.76-152H496v-16h-69.84a202.724 202.724 0 005.84-48zm32-104c8.64 0 16 10.96 16 24s-7.36 24-16 24-16-10.96-16-24 7.36-24 16-24zM400 72c8.64 0 16 10.96 16 24 0 12.8-7.04 23.52-15.52 23.92-.459.038-2.584.143-4.8-.96A24.797 24.797 0 01384 96c0-13.04 7.36-24 16-24zM190.16 49.52a4.536 4.536 0 01.72-3.52 20.842 20.842 0 0112.64-8.32 20.63 20.63 0 0115.04.88 5.305 5.305 0 012.56 2.96l18.96 59.44A147.106 147.106 0 00222 129.52c-4.8.48-9.6.96-14.16 1.6zm-69.6 18.72c-.88-3.2 3.92-9.44 13.36-11.92 9.28-2.56 16.72.48 17.68 3.84l24.8 77.6a153.407 153.407 0 00-37.2 16.32zM85.04 232.16L51.12 87.36c0-.24-.08-.4-.08-.56a4.536 4.536 0 01.72-3.52 20.798 20.798 0 0112.64-8.32 20.63 20.63 0 0115.04.88A5.305 5.305 0 0182 78.8l31.12 97.12a125.423 125.423 0 00-28.08 56.24zM256 480c-49.04 0-121.12-57.84-148.72-136H168a8 8 0 007.44-5.04l5.12-12.8 11.52 75.04a7.999 7.999 0 0015.76.56l31.92-140.64 16.4 76.56a8.121 8.121 0 006.56 6.24 7.912 7.912 0 008.16-3.84l13.36-22.24 19.92 99.76a8 8 0 007.52 6.4h.32a7.944 7.944 0 007.68-5.84l38.56-134.96 9.92 54.24A8 8 0 00376 344h28.72c-27.6 78.16-99.68 136-148.72 136zm153.6-152h-26.96l-14.8-81.44a7.92 7.92 0 00-7.44-6.56 8 8 0 00-8.08 5.84l-38.96 136.24-17.52-87.68a8 8 0 00-14.72-2.48l-13.52 22.56-19.76-92.16a7.952 7.952 0 00-7.76-6.32H240a8 8 0 00-7.84 6.24L201.52 357.2l-9.6-62.4a8 8 0 00-15.36-1.76l-14 34.96H102.4a187.711 187.711 0 01-6.4-48c0-80.96 38-123.68 119.04-133.6a156.824 156.824 0 00-5.76 21.44 129.176 129.176 0 00-47.36 34.96c-40.32 47.6-36.8 99.92-33.6 111.36l15.36-4.24a123.081 123.081 0 0130.4-96.72c27.636-32.236 70.798-46.603 112.24-37.36l3.36-15.68a133.058 133.058 0 00-62.56 1.52 130.615 130.615 0 0142-67.52c37.76-31.52 83.2-30.72 108.72-26.88A44.794 44.794 0 00368 96a47.524 47.524 0 004.24 19.6 34.448 34.448 0 00-25.68 6.48 64.287 64.287 0 00-18.16 64.32l15.2-4.8a42.107 42.107 0 010-24.16C392.24 176.32 416 216.48 416 280a187.711 187.711 0 01-6.4 48zm-14.4-155.84a175.449 175.449 0 0146.16-.4A45.534 45.534 0 00432 200a43.852 43.852 0 0012.24 31.2 50.8 50.8 0 01-5.04.8 46.863 46.863 0 01-12.56-.48 125.09 125.09 0 00-31.44-59.36z"/></svg>